<svg width="33" height="29" viewBox="0 0 33 29" fill="none" xmlns="http://www.w3.org/2000/svg">
<path d="M32.3308 2.06067C32.3643 1.23292 31.7205 0.534735 30.8927 0.501228C30.065 0.46772 29.3668 1.11158 29.3333 1.93933L32.3308 2.06067ZM0.939558 15.9393C0.353771 16.5251 0.353771 17.4749 0.939558 18.0607L10.4855 27.6066C11.0713 28.1924 12.021 28.1924 12.6068 27.6066C13.1926 27.0208 13.1926 26.0711 12.6068 25.4853L4.12154 17L12.6068 8.51472C13.1926 7.92893 13.1926 6.97919 12.6068 6.3934C12.021 5.80761 11.0713 5.80761 10.4855 6.3934L0.939558 15.9393ZM29.3333 1.93933C29.1984 5.27029 28.529 7.67601 27.4356 9.44762C26.3567 11.1956 24.7896 12.4488 22.6226 13.3527C18.1489 15.2187 11.411 15.5 2.00022 15.5V18.5C11.2452 18.5 18.6406 18.2641 23.7775 16.1215C26.4158 15.021 28.5234 13.3971 29.9885 11.0233C31.439 8.67313 32.183 5.71247 32.3308 2.06067L29.3333 1.93933Z" fill="#135EF2"/>
</svg>
