<svg width="57" height="65" viewBox="0 0 57 65" fill="none" xmlns="http://www.w3.org/2000/svg">
<path fill-rule="evenodd" clip-rule="evenodd" d="M23.5125 0C22.9456 0 22.4019 0.225765 22.0011 0.627628C21.6002 1.02949 21.375 1.57454 21.375 2.14286C21.375 2.71118 21.6002 3.25622 22.0011 3.65809C22.4019 4.05995 22.9456 4.28571 23.5125 4.28571H26.3625V7.93714C20.464 8.37362 14.849 10.6472 10.3028 14.44L6.49802 10.6286C6.09283 10.2501 5.55689 10.044 5.00314 10.0538C4.44938 10.0636 3.92103 10.2885 3.52941 10.6811C3.13778 11.0737 2.91345 11.6034 2.90368 12.1585C2.89391 12.7137 3.09946 13.2509 3.47703 13.6571L7.22477 17.4171C2.56248 22.6456 -0.0102407 29.4155 3.06368e-05 36.4286C3.06368e-05 52.2086 12.7595 65 28.5 65C44.2405 65 57 52.2086 57 36.4286C57.0102 29.4155 54.4375 22.6456 49.7752 17.4171L53.523 13.6571C53.9005 13.2509 54.1061 12.7137 54.0963 12.1585C54.0866 11.6034 53.8622 11.0737 53.4706 10.6811C53.079 10.2885 52.5506 10.0636 51.9969 10.0538C51.4431 10.044 50.9072 10.2501 50.502 10.6286L46.7001 14.44C42.153 10.6467 36.537 8.37304 30.6375 7.93714V4.28571H33.4875C34.0544 4.28571 34.5981 4.05995 34.9989 3.65809C35.3998 3.25622 35.625 2.71118 35.625 2.14286C35.625 1.57454 35.3998 1.02949 34.9989 0.627628C34.5981 0.225765 34.0544 0 33.4875 0L23.5125 0ZM28.5 60.7143C34.9249 60.7143 41.0866 58.1556 45.6297 53.6012C50.1727 49.0467 52.725 42.8695 52.725 36.4286C52.725 29.9876 50.1727 23.8104 45.6297 19.256C41.0866 14.7015 34.9249 12.1429 28.5 12.1429C22.0751 12.1429 15.9134 14.7015 11.3704 19.256C6.82729 23.8104 4.27503 29.9876 4.27503 36.4286C4.27503 42.8695 6.82729 49.0467 11.3704 53.6012C15.9134 58.1556 22.0751 60.7143 28.5 60.7143ZM39.9855 24.9143C40.3858 25.3161 40.6106 25.8607 40.6106 26.4286C40.6106 26.9964 40.3858 27.5411 39.9855 27.9429L33.1996 34.7486C33.5803 35.8179 33.5866 36.9852 33.2175 38.0586C32.8484 39.132 32.1259 40.0475 31.1689 40.6545C30.2118 41.2615 29.0771 41.5239 27.9515 41.3985C26.826 41.2732 25.7764 40.7675 24.9756 39.9646C24.1748 39.1618 23.6704 38.1097 23.5453 36.9813C23.4203 35.8528 23.682 34.7153 24.2875 33.7559C24.893 32.7964 25.8062 32.0721 26.8769 31.7021C27.9476 31.3321 29.112 31.3384 30.1786 31.72L36.9616 24.9143C37.1601 24.7152 37.3958 24.5572 37.6553 24.4494C37.9147 24.3416 38.1927 24.2862 38.4736 24.2862C38.7544 24.2862 39.0324 24.3416 39.2919 24.4494C39.5513 24.5572 39.787 24.7152 39.9855 24.9143Z" fill="#FF6B00"/>
</svg>
