<svg width="37" height="40" viewBox="0 0 37 40" fill="none" xmlns="http://www.w3.org/2000/svg">
<path d="M0.49229 1.32185C0.445191 0.771574 0.853093 0.287308 1.40337 0.240208C1.95364 0.193109 2.4379 0.60101 2.485 1.15128L0.49229 1.32185ZM35.9053 33.0081C36.2161 33.4646 36.0979 34.0867 35.6414 34.3974L28.2016 39.462C27.7451 39.7728 27.123 39.6546 26.8122 39.1981C26.5015 38.7416 26.6196 38.1195 27.0762 37.8087L33.6893 33.3069L29.1874 26.6938C28.8767 26.2372 28.9948 25.6152 29.4514 25.3044C29.9079 24.9936 30.5299 25.1118 30.8407 25.5683L35.9053 33.0081ZM2.485 1.15128C3.31303 10.8252 10.9836 27.9761 35.2653 32.5884L34.892 34.5532C9.60077 29.7492 1.38503 11.7518 0.49229 1.32185L2.485 1.15128Z" fill="white"/>
</svg>
