<svg width="33" height="41" viewBox="0 0 33 41" fill="none" xmlns="http://www.w3.org/2000/svg">
<path d="M32.2899 1.73652C32.2899 1.18423 31.8422 0.736522 31.2899 0.736528C30.7376 0.736535 30.2899 1.18425 30.2899 1.73654L32.2899 1.73652ZM0.91812 35.2807C0.679138 35.7786 0.889036 36.376 1.38694 36.615L9.50071 40.5094C9.99861 40.7484 10.596 40.5385 10.835 40.0406C11.0739 39.5427 10.864 38.9453 10.3661 38.7063L3.1539 35.2446L6.61563 28.0324C6.85461 27.5345 6.64471 26.9371 6.14681 26.6981C5.64891 26.4591 5.05155 26.669 4.81256 27.1669L0.91812 35.2807ZM30.2899 1.73654C30.29 10.3194 24.3948 26.7213 1.48815 34.77L2.15115 36.6569C25.8726 28.3219 32.29 11.1537 32.2899 1.73652L30.2899 1.73654Z" fill="white"/>
</svg>
