<svg width="12" height="14" viewBox="0 0 12 14" fill="none" xmlns="http://www.w3.org/2000/svg">
<circle cx="6" cy="7.54553" r="5.5" stroke="#135EF2"/>
<path d="M5.37729 7.81929C5.37729 7.61529 5.41929 7.44429 5.50329 7.30629C5.59329 7.16229 5.70129 7.03629 5.82729 6.92829C5.95329 6.82029 6.07929 6.72129 6.20529 6.63129C6.33129 6.53529 6.43629 6.43629 6.52029 6.33429C6.61029 6.23229 6.65529 6.11529 6.65529 5.98329C6.65529 5.82129 6.57129 5.68929 6.40329 5.58729C6.24129 5.48529 6.00729 5.43429 5.70129 5.43429C5.43129 5.43429 5.18829 5.47629 4.97229 5.56029C4.76229 5.64429 4.58529 5.76129 4.44129 5.91129L3.65829 5.32629C3.88029 5.08629 4.17429 4.89129 4.54029 4.74129C4.90629 4.59129 5.33529 4.51629 5.82729 4.51629C6.21729 4.51629 6.56229 4.56729 6.86229 4.66929C7.16229 4.76529 7.39629 4.90929 7.56429 5.10129C7.73829 5.29329 7.82529 5.52429 7.82529 5.79429C7.82529 6.02229 7.77729 6.21429 7.68129 6.37029C7.58529 6.52029 7.46829 6.65229 7.33029 6.76629C7.19829 6.88029 7.06329 6.98829 6.92529 7.09029C6.78729 7.18629 6.67029 7.29429 6.57429 7.41429C6.47829 7.52829 6.43029 7.66329 6.43029 7.81929H5.37729ZM5.93529 9.79029C5.70729 9.79029 5.52729 9.72429 5.39529 9.59229C5.26929 9.45429 5.20629 9.30429 5.20629 9.14229C5.20629 8.97429 5.26929 8.82429 5.39529 8.69229C5.52729 8.56029 5.70729 8.49429 5.93529 8.49429C6.15729 8.49429 6.33129 8.56029 6.45729 8.69229C6.58329 8.82429 6.64629 8.97429 6.64629 9.14229C6.64629 9.30429 6.58329 9.45429 6.45729 9.59229C6.33129 9.72429 6.15729 9.79029 5.93529 9.79029Z" fill="#135EF2"/>
</svg>
