<svg width="21" height="21" viewBox="0 0 21 21" fill="none" xmlns="http://www.w3.org/2000/svg">
<path fill-rule="evenodd" clip-rule="evenodd" d="M13.0094 5.77036L10.5 1L7.99064 5.77036C7.81337 6.11896 7.55678 6.4211 7.2415 6.6525C6.92469 6.88508 6.55809 7.04074 6.17071 7.10714L1 8.12093L4.61 12.438C5.10369 12.9791 5.33665 13.7087 5.24786 14.4357L4.56114 20L9.322 17.6929C9.68927 17.515 10.0919 17.4222 10.5 17.4214C10.8829 17.4226 11.2599 17.5157 11.5993 17.6929L16.4714 19.8575L15.7847 14.3597C15.6979 13.6343 15.9313 12.907 16.4239 12.3674L20 8.12093L14.8293 7.10714C14.4414 7.04094 14.0744 6.88528 13.7571 6.6525C13.4424 6.42094 13.1862 6.11881 13.0094 5.77036Z" stroke="#FF6B00" stroke-width="1.5" stroke-linecap="round" stroke-linejoin="round"/>
</svg>
