<svg width="20" height="19" viewBox="0 0 20 19" fill="none" xmlns="http://www.w3.org/2000/svg">
<path d="M17.3699 7.28248C17.4901 7.67888 17.9088 7.90283 18.3052 7.78269C18.7016 7.66254 18.9256 7.24379 18.8054 6.84738L17.3699 7.28248ZM15.9019 3.48267L16.4269 2.94708L16.4263 2.9465L15.9019 3.48267ZM11.4287 1.15723L11.5722 0.421076L11.5708 0.420818L11.4287 1.15723ZM6.38728 1.64296L6.10589 0.947748L6.10518 0.948039L6.38728 1.64296ZM2.47085 4.77107L1.85147 4.34815L1.85146 4.34816L2.47085 4.77107ZM3.55603 15.5045L4.08335 14.9712L4.08301 14.9708L3.55603 15.5045ZM14.5737 16.5622L14.9842 17.1898L14.9844 17.1897L14.5737 16.5622ZM18.4791 13.0385C18.6402 12.6569 18.4614 12.2169 18.0798 12.0558C17.6982 11.8947 17.2583 12.0735 17.0972 12.4551L18.4791 13.0385ZM17.3637 6.86593C17.2538 7.2653 17.4885 7.67814 17.8878 7.78804C18.2872 7.89793 18.7001 7.66327 18.8099 7.2639L17.3637 6.86593ZM19.7228 3.94636C19.8327 3.54699 19.5981 3.13415 19.1987 3.02425C18.7993 2.91436 18.3865 3.14902 18.2766 3.54839L19.7228 3.94636ZM17.8982 7.79064C18.299 7.89523 18.7087 7.65512 18.8133 7.25433C18.9179 6.85354 18.6778 6.44385 18.277 6.33925L17.8982 7.79064ZM14.871 5.45036C14.4702 5.34576 14.0605 5.58588 13.9559 5.98667C13.8513 6.38745 14.0915 6.79715 14.4923 6.90175L14.871 5.45036ZM9.4668 7.06493C9.4668 6.65071 9.13101 6.31493 8.7168 6.31493C8.30258 6.31493 7.9668 6.65071 7.9668 7.06493H9.4668ZM8.7168 10.7079H7.9668C7.9668 11.1221 8.30258 11.4579 8.7168 11.4579V10.7079ZM12.5741 11.4579C12.9883 11.4579 13.3241 11.1221 13.3241 10.7079C13.3241 10.2937 12.9883 9.95791 12.5741 9.95791V11.4579ZM18.8054 6.84738C18.3604 5.37902 17.5423 4.04043 16.4269 2.94708L15.3769 4.01825C16.3169 4.93972 16.9997 6.0611 17.3699 7.28248L18.8054 6.84738ZM16.4263 2.9465C15.1094 1.65844 13.4168 0.780504 11.5722 0.421077L11.2853 1.89339C12.8505 2.19837 14.2759 2.94142 15.3775 4.01883L16.4263 2.9465ZM11.5708 0.420818C9.73597 0.0667403 7.8299 0.249971 6.10589 0.947748L6.66866 2.33818C8.12242 1.74978 9.73421 1.59407 11.2866 1.89365L11.5708 0.420818ZM6.10518 0.948039C4.36732 1.65351 2.88463 2.83503 1.85147 4.34815L3.09024 5.19399C3.95147 3.93268 5.19583 2.93606 6.66938 2.33789L6.10518 0.948039ZM1.85146 4.34816C-0.666751 8.0364 -0.171651 12.8776 3.02906 16.0382L4.08301 14.9708C1.3898 12.3114 0.987262 8.27407 3.09025 5.19397L1.85146 4.34816ZM3.02872 16.0378C6.18119 19.1548 11.2454 19.6353 14.9842 17.1898L14.1632 15.9345C11.0061 17.9995 6.72487 17.5829 4.08335 14.9712L3.02872 16.0378ZM14.9844 17.1897C16.5501 16.165 17.768 14.7228 18.4791 13.0385L17.0972 12.4551C16.5058 13.8557 15.4876 15.0677 14.163 15.9346L14.9844 17.1897ZM18.8099 7.2639L19.7228 3.94636L18.2766 3.54839L17.3637 6.86593L18.8099 7.2639ZM18.277 6.33925L14.871 5.45036L14.4923 6.90175L17.8982 7.79064L18.277 6.33925ZM7.9668 7.06493V10.7079H9.4668V7.06493H7.9668ZM8.7168 11.4579H12.5741V9.95791H8.7168V11.4579Z" fill="#FF6B00"/>
</svg>
