<svg width="21" height="21" viewBox="0 0 21 21" fill="none" xmlns="http://www.w3.org/2000/svg">
<path d="M1.75602 13.5753C1.77533 13.1615 1.45557 12.8105 1.04181 12.7911C0.628044 12.7718 0.276965 13.0916 0.25765 13.5054L1.75602 13.5753ZM6.85229 19.9896L6.81368 20.7386C6.82654 20.7393 6.83941 20.7396 6.85229 20.7396V19.9896ZM14.1578 19.9896V20.7396C14.1706 20.7396 14.1835 20.7393 14.1964 20.7386L14.1578 19.9896ZM20.7524 13.5054C20.7331 13.0916 20.382 12.7718 19.9682 12.7911C19.5545 12.8105 19.2347 13.1615 19.254 13.5753L20.7524 13.5054ZM0.256898 13.5403C0.256898 13.9545 0.592685 14.2903 1.0069 14.2903C1.42111 14.2903 1.7569 13.9545 1.7569 13.5403H0.256898ZM1.0069 11.6258H1.7569C1.7569 11.614 1.75662 11.6023 1.75607 11.5906L1.0069 11.6258ZM6.85235 5.17513V4.42513C6.83948 4.42513 6.82661 4.42546 6.81376 4.42612L6.85235 5.17513ZM14.1578 5.17513L14.1964 4.42612C14.1836 4.42546 14.1707 4.42513 14.1578 4.42513V5.17513ZM20.0033 11.6258L19.2541 11.5906C19.2535 11.6023 19.2533 11.614 19.2533 11.6258H20.0033ZM19.2533 13.5403C19.2533 13.9545 19.5891 14.2903 20.0033 14.2903C20.4175 14.2903 20.7533 13.9545 20.7533 13.5403H19.2533ZM1.00663 12.7903C0.592412 12.7903 0.256625 13.1261 0.256625 13.5403C0.256625 13.9545 0.592412 14.2903 1.00663 14.2903V12.7903ZM5.75572 14.2903C6.16993 14.2903 6.50572 13.9545 6.50572 13.5403C6.50572 13.1261 6.16993 12.7903 5.75572 12.7903V14.2903ZM5.00572 13.5403C5.00572 13.9545 5.3415 14.2903 5.75572 14.2903C6.16993 14.2903 6.50572 13.9545 6.50572 13.5403H5.00572ZM6.50572 12.1454C6.50572 11.7312 6.16993 11.3954 5.75572 11.3954C5.3415 11.3954 5.00572 11.7312 5.00572 12.1454H6.50572ZM6.50572 13.539C6.50572 13.1247 6.16993 12.789 5.75572 12.789C5.3415 12.789 5.00572 13.1247 5.00572 13.539H6.50572ZM5.00572 14.9325C5.00572 15.3467 5.3415 15.6825 5.75572 15.6825C6.16993 15.6825 6.50572 15.3467 6.50572 14.9325H5.00572ZM5.75572 12.789C5.3415 12.789 5.00572 13.1247 5.00572 13.539C5.00572 13.9532 5.3415 14.289 5.75572 14.289V12.789ZM15.2539 14.289C15.6681 14.289 16.0039 13.9532 16.0039 13.539C16.0039 13.1247 15.6681 12.789 15.2539 12.789V14.289ZM20.003 14.289C20.4172 14.289 20.753 13.9532 20.753 13.539C20.753 13.1247 20.4172 12.789 20.003 12.789V14.289ZM15.2539 12.789C14.8397 12.789 14.5039 13.1247 14.5039 13.539C14.5039 13.9532 14.8397 14.289 15.2539 14.289V12.789ZM14.5036 13.5389C14.5036 13.9531 14.8394 14.2889 15.2536 14.2889C15.6679 14.2889 16.0036 13.9531 16.0036 13.5389H14.5036ZM16.0036 12.1454C16.0036 11.7312 15.6679 11.3954 15.2536 11.3954C14.8394 11.3954 14.5036 11.7312 14.5036 12.1454H16.0036ZM16.0036 13.539C16.0036 13.1248 15.6679 12.789 15.2536 12.789C14.8394 12.789 14.5036 13.1248 14.5036 13.539H16.0036ZM14.5036 14.9325C14.5036 15.3467 14.8394 15.6825 15.2536 15.6825C15.6679 15.6825 16.0036 15.3467 16.0036 14.9325H14.5036ZM5.68457 5.19141C5.68457 5.60563 6.02036 5.94141 6.43457 5.94141C6.84878 5.94141 7.18457 5.60563 7.18457 5.19141H5.68457ZM6.43457 5.17513H5.68457H6.43457ZM14.0348 5.21177C14.0348 5.62598 14.3706 5.96177 14.7848 5.96177C15.199 5.96177 15.5348 5.62598 15.5348 5.21177H14.0348ZM0.25765 13.5054C0.0800549 17.3098 3.01016 20.5426 6.81368 20.7386L6.89089 19.2406C3.91186 19.087 1.61692 16.555 1.75602 13.5753L0.25765 13.5054ZM6.85229 20.7396H14.1578V19.2396H6.85229V20.7396ZM14.1964 20.7386C17.9999 20.5426 20.93 17.3098 20.7524 13.5054L19.254 13.5753C19.3931 16.555 17.0982 19.087 14.1191 19.2406L14.1964 20.7386ZM1.7569 13.5403V11.6258H0.256898V13.5403H1.7569ZM1.75607 11.5906C1.6163 8.61042 3.91143 6.07767 6.89095 5.92413L6.81376 4.42612C3.00961 4.62216 0.0792624 7.85588 0.257722 11.6609L1.75607 11.5906ZM6.85235 5.92513H14.1578V4.42513H6.85235V5.92513ZM14.1192 5.92413C17.0987 6.07767 19.3939 8.61042 19.2541 11.5906L20.7524 11.6609C20.9309 7.85588 18.0006 4.62216 14.1964 4.42612L14.1192 5.92413ZM19.2533 11.6258V13.5403H20.7533V11.6258H19.2533ZM1.00663 14.2903H5.75572V12.7903H1.00663V14.2903ZM6.50572 13.5403V12.1454H5.00572V13.5403H6.50572ZM5.00572 13.539V14.9325H6.50572V13.539H5.00572ZM5.75572 14.289H15.2539V12.789H5.75572V14.289ZM20.003 12.789H15.2539V14.289H20.003V12.789ZM16.0036 13.5389V12.1454H14.5036V13.5389H16.0036ZM14.5036 13.539V14.9325H16.0036V13.539H14.5036ZM7.18457 5.19141V5.17513H5.68457V5.19141H7.18457ZM7.18457 5.17513C7.18457 3.28348 8.71805 1.75 10.6097 1.75V0.25C7.88963 0.25 5.68457 2.45506 5.68457 5.17513H7.18457ZM10.6097 1.75C12.5013 1.75 14.0348 3.28348 14.0348 5.17513H15.5348C15.5348 2.45506 13.3298 0.25 10.6097 0.25V1.75ZM14.0348 5.17513V5.21177H15.5348V5.17513H14.0348Z" fill="#FF6B00"/>
</svg>
