<svg width="99" height="21" viewBox="0 0 99 21" fill="none" xmlns="http://www.w3.org/2000/svg">
<path d="M1.39405 14.7072C0.909675 15.0309 0.788314 15.6162 1.12297 16.0145C1.45764 16.4127 2.12159 16.4732 2.60596 16.1494L1.39405 14.7072ZM97.3849 19.3233C97.973 19.2588 98.4267 18.7938 98.3985 18.2846L97.9376 9.98698C97.9093 9.4778 97.4096 9.1173 96.8216 9.1818C96.2335 9.24629 95.7797 9.71134 95.808 10.2205L96.2177 17.5962L87.6995 18.5304C87.1115 18.5949 86.6577 19.0599 86.686 19.5691C86.7143 20.0783 87.2139 20.4388 87.802 20.3743L97.3849 19.3233ZM2.60596 16.1494C20.3452 4.29295 59.1119 -7.9241 96.617 19.1358L98.0504 17.6669C59.6357 -10.0493 19.7357 2.44807 1.39405 14.7072L2.60596 16.1494Z" fill="white"/>
</svg>
