<svg width="16" height="21" viewBox="0 0 16 21" fill="none" xmlns="http://www.w3.org/2000/svg">
<path d="M8.0049 0.644806C7.59068 0.644797 7.25489 0.980576 7.25488 1.39479C7.25487 1.809 7.59065 2.1448 8.00487 2.14481L8.0049 0.644806ZM10.4918 1.88361L10.7759 1.18949L10.7756 1.18939L10.4918 1.88361ZM13.409 4.25481L12.7876 4.67472L12.788 4.6754L13.409 4.25481ZM14.5049 7.81681H15.2549L15.2549 7.8156L14.5049 7.81681ZM12.6004 12.3577L11.995 11.915C11.9859 11.9274 11.9772 11.9402 11.9688 11.9532L12.6004 12.3577ZM10.7128 15.3048L10.0812 14.9003L10.0786 14.9045L10.7128 15.3048ZM8.00488 19.5948L7.37105 19.9957C7.50858 20.2132 7.74797 20.3449 8.00524 20.3448C8.26252 20.3447 8.50178 20.2127 8.6391 19.9951L8.00488 19.5948ZM5.29698 15.3139L5.93083 14.913L5.92887 14.9099L5.29698 15.3139ZM3.40938 12.3616L4.04127 11.9576C4.03297 11.9446 4.02428 11.9319 4.0152 11.9195L3.40938 12.3616ZM1.50488 7.82071L0.754883 7.81996V7.82071H1.50488ZM2.60078 4.25481L3.22175 4.6754L3.22179 4.67534L2.60078 4.25481ZM5.51798 1.88751L5.80165 2.58179L5.80291 2.58127L5.51798 1.88751ZM8.00599 2.14481C8.4202 2.1442 8.75549 1.80791 8.75488 1.3937C8.75427 0.979489 8.41799 0.644197 8.00378 0.644807L8.00599 2.14481ZM8.00488 9.2079C7.59067 9.2079 7.25488 9.54369 7.25488 9.9579C7.25488 10.3721 7.59067 10.7079 8.00488 10.7079V9.2079ZM8.00488 4.9257C7.59067 4.9257 7.25488 5.26149 7.25488 5.6757C7.25488 6.08992 7.59067 6.4257 8.00488 6.4257V4.9257ZM8.02386 10.7155C8.43794 10.7053 8.76536 10.3613 8.75515 9.94722C8.74494 9.53313 8.40099 9.20572 7.9869 9.21592L8.02386 10.7155ZM6.10723 8.91099L6.75365 8.53067L6.10723 8.91099ZM6.10723 6.7395L5.46082 6.35918L6.10723 6.7395ZM7.9869 6.43457C8.40099 6.44477 8.74494 6.11736 8.75515 5.70327C8.76536 5.28919 8.43794 4.94523 8.02386 4.93502L7.9869 6.43457ZM8.00487 2.14481C8.76036 2.14482 9.50864 2.29189 10.2079 2.57782L10.7756 1.18939C9.89614 0.829795 8.95506 0.644826 8.0049 0.644806L8.00487 2.14481ZM10.2077 2.57772C11.2558 3.00669 12.1535 3.73635 12.7876 4.67472L14.0304 3.8349C13.2305 2.65113 12.0981 1.73065 10.7759 1.18949L10.2077 2.57772ZM12.788 4.6754C13.4164 5.60313 13.7531 6.69751 13.7549 7.81801L15.2549 7.8156C15.2526 6.39604 14.826 5.00956 14.03 3.83421L12.788 4.6754ZM13.7549 7.81681C13.7549 8.57515 13.6368 9.13952 13.3779 9.7232C13.1079 10.3319 12.6755 10.9844 11.995 11.915L13.2058 12.8004C13.8876 11.8681 14.4075 11.1016 14.7491 10.3314C15.1019 9.53609 15.2549 8.76147 15.2549 7.81681H13.7549ZM11.9688 11.9532L10.0812 14.9003L11.3443 15.7093L13.2319 12.7622L11.9688 11.9532ZM10.0786 14.9045L7.37066 19.1945L8.6391 19.9951L11.347 15.7051L10.0786 14.9045ZM8.63872 19.1939L5.93082 14.913L4.66315 15.7148L7.37105 19.9957L8.63872 19.1939ZM5.92887 14.9099L4.04127 11.9576L2.7775 12.7656L4.6651 15.7179L5.92887 14.9099ZM4.0152 11.9195C3.33432 10.9865 2.90183 10.334 2.63174 9.72546C2.37289 9.14229 2.25488 8.57895 2.25488 7.82071H0.754883C0.754883 8.76547 0.907927 9.53917 1.26073 10.334C1.60228 11.1035 2.12205 11.8699 2.80356 12.8037L4.0152 11.9195ZM2.25488 7.82145C2.256 6.69978 2.59273 5.6041 3.22175 4.6754L1.97981 3.83421C1.1829 5.01079 0.756295 6.39891 0.754883 7.81996L2.25488 7.82145ZM3.22179 4.67534C3.85637 3.73825 4.75399 3.00984 5.80165 2.58179L5.23432 1.19322C3.91267 1.73321 2.78031 2.65212 1.97977 3.83427L3.22179 4.67534ZM5.80291 2.58127C6.50198 2.29417 7.25026 2.14592 8.00599 2.14481L8.00378 0.644807C7.05333 0.646206 6.11224 0.832652 5.23305 1.19374L5.80291 2.58127ZM8.00488 10.7079C9.03777 10.7079 9.9922 10.1569 10.5086 9.26235L9.20961 8.51235C8.96111 8.94276 8.50187 9.2079 8.00488 9.2079V10.7079ZM10.5086 9.26235C11.0251 8.36785 11.0251 7.26576 10.5086 6.37125L9.20961 7.12125C9.45811 7.55166 9.45811 8.08195 9.20961 8.51235L10.5086 9.26235ZM10.5086 6.37125C9.9922 5.47675 9.03777 4.9257 8.00488 4.9257V6.4257C8.50187 6.4257 8.96111 6.69085 9.20961 7.12125L10.5086 6.37125ZM7.9869 9.21592C7.48189 9.22837 7.00982 8.96606 6.75365 8.53067L5.46081 9.29131C5.9932 10.1962 6.9743 10.7413 8.02386 10.7155L7.9869 9.21592ZM6.75365 8.53067C6.49748 8.09527 6.49748 7.55522 6.75365 7.11982L5.46082 6.35918C4.92843 7.26406 4.92843 8.38643 5.46082 9.29131L6.75365 8.53067ZM6.75365 7.11982C7.00982 6.68443 7.48189 6.42212 7.9869 6.43457L8.02386 4.93502C6.9743 4.90916 5.9932 5.4543 5.46082 6.35918L6.75365 7.11982Z" fill="#FF6B00"/>
</svg>
