<svg width="13" height="8" viewBox="0 0 13 8" fill="none" xmlns="http://www.w3.org/2000/svg">
<path d="M5.78307 0.334792L0.287703 6.22087C0.19654 6.31755 0.124182 6.43257 0.0748024 6.55929C0.0254231 6.68602 0 6.82195 0 6.95923C0 7.09652 0.0254231 7.23244 0.0748024 7.35917C0.124182 7.4859 0.19654 7.60092 0.287703 7.69759C0.469938 7.89128 0.716453 8 0.973408 8C1.23036 8 1.47688 7.89128 1.65911 7.69759L6.52227 2.54987L11.3368 7.69759C11.519 7.89128 11.7656 8 12.0225 8C12.2795 8 12.526 7.89128 12.7082 7.69759C12.8001 7.60128 12.8732 7.48642 12.9233 7.35968C12.9734 7.23293 12.9995 7.09682 13 6.95923C12.9995 6.82164 12.9734 6.68553 12.9233 6.55879C12.8732 6.43204 12.8001 6.31719 12.7082 6.22087L7.21284 0.334792C7.12176 0.229232 7.01122 0.144988 6.88818 0.0873675C6.76515 0.029747 6.63228 0 6.49796 0C6.36364 0 6.23077 0.029747 6.10773 0.0873675C5.98469 0.144988 5.87415 0.229232 5.78307 0.334792Z" fill="white"/>
</svg>
