<svg width="13" height="9" viewBox="0 0 13 9" fill="none" xmlns="http://www.w3.org/2000/svg">
<path d="M7.21693 8.16521L12.7123 2.27913C12.8035 2.18245 12.8758 2.06743 12.9252 1.94071C12.9746 1.81398 13 1.67805 13 1.54077C13 1.40348 12.9746 1.26756 12.9252 1.14083C12.8758 1.0141 12.8035 0.899084 12.7123 0.802408C12.5301 0.608717 12.2835 0.5 12.0266 0.5C11.7696 0.5 11.5231 0.608717 11.3409 0.802408L6.47773 5.95013L1.6632 0.802408C1.48096 0.608717 1.23445 0.5 0.977494 0.5C0.720538 0.5 0.474023 0.608717 0.291789 0.802408C0.199886 0.898722 0.126773 1.01358 0.0766859 1.14032C0.0265989 1.26707 0.000534058 1.40318 0 1.54077C0.000534058 1.67836 0.0265989 1.81447 0.0766859 1.94121C0.126773 2.06796 0.199886 2.18281 0.291789 2.27913L5.78716 8.16521C5.87824 8.27077 5.98878 8.35501 6.11182 8.41263C6.23485 8.47025 6.36772 8.5 6.50204 8.5C6.63636 8.5 6.76923 8.47025 6.89227 8.41263C7.01531 8.35501 7.12585 8.27077 7.21693 8.16521Z" fill="white"/>
</svg>
