<svg width="21" height="21" viewBox="0 0 21 21" fill="none" xmlns="http://www.w3.org/2000/svg">
<path fill-rule="evenodd" clip-rule="evenodd" d="M2.00557 5.41381C3.0297 4.3596 3.39236 4.06389 3.82837 3.92731C4.13057 3.84971 4.44759 3.84515 4.75199 3.91405C5.15268 4.02809 5.25727 4.11428 6.57208 5.39126C7.72661 6.5131 7.8407 6.63509 7.95208 6.84991C8.16752 7.23656 8.20216 7.695 8.04716 8.10833C7.93307 8.41995 7.76464 8.62681 7.06513 9.3137L6.60875 9.76058C6.48868 9.87948 6.46022 10.0601 6.53812 10.2088C7.55122 11.8963 8.98825 13.3038 10.7134 14.2983C10.9124 14.4024 11.1576 14.3686 11.3192 14.2148L11.758 13.7931C12.029 13.5215 12.3161 13.2656 12.6177 13.0266C13.0907 12.7409 13.6811 12.7134 14.1798 12.9537C14.4229 13.0651 14.5044 13.138 15.6956 14.297C16.918 15.4904 16.9574 15.5289 17.0946 15.8034C17.3507 16.258 17.3482 16.8096 17.0878 17.262C16.952 17.5166 16.8759 17.6094 16.1859 18.2976C15.7689 18.714 15.371 19.0933 15.3139 19.149C14.7441 19.6088 14.0136 19.8346 13.2765 19.7788C11.928 19.6583 10.6229 19.251 9.45297 18.5854C6.85981 17.2441 4.65236 15.2896 3.03242 12.9006C2.67817 12.4012 2.36307 11.8764 2.08978 11.3306C1.36162 10.1119 0.98518 8.72347 1.00045 7.3127C1.05522 6.57213 1.41849 5.88583 2.00557 5.41381Z" stroke="#FF6B00" stroke-width="1.5" stroke-linecap="round" stroke-linejoin="round"/>
<path d="M13.5925 0.505085C13.2016 0.36811 12.7736 0.573965 12.6366 0.964875C12.4997 1.35578 12.7055 1.78372 13.0964 1.9207L13.5925 0.505085ZM19.3006 7.87262C19.4502 8.25888 19.8846 8.45074 20.2708 8.30115C20.6571 8.15157 20.8489 7.71718 20.6993 7.33092L19.3006 7.87262ZM12.0118 3.46805C11.6073 3.37886 11.2071 3.63448 11.1179 4.03898C11.0287 4.44347 11.2844 4.84368 11.6889 4.93287L12.0118 3.46805ZM16.2977 9.3506C16.3979 9.75251 16.8049 9.99707 17.2068 9.89686C17.6088 9.79664 17.8533 9.38959 17.7531 8.98768L16.2977 9.3506ZM13.0964 1.9207C15.9633 2.92525 18.2281 5.10338 19.3006 7.87262L20.6993 7.33092C19.465 4.1437 16.8648 1.65173 13.5925 0.505085L13.0964 1.9207ZM11.6889 4.93287C13.97 5.43582 15.7498 7.15321 16.2977 9.3506L17.7531 8.98768C17.0637 6.2227 14.8336 4.0902 12.0118 3.46805L11.6889 4.93287Z" fill="#FF6B00"/>
</svg>
