<svg width="23" height="22" viewBox="0 0 23 22" fill="none" xmlns="http://www.w3.org/2000/svg">
<path d="M11.3322 10.9219C13.1717 10.9219 14.6629 9.43066 14.6629 7.59115C14.6629 5.75165 13.1717 4.26044 11.3322 4.26044C9.49268 4.26044 8.00146 5.75165 8.00146 7.59115C8.00146 9.43066 9.49268 10.9219 11.3322 10.9219Z" stroke="white" stroke-width="1.5" stroke-linecap="round" stroke-linejoin="round"/>
<path d="M16.771 16.0656C16.4801 14.8931 15.8172 13.8436 14.8786 13.0764C13.8777 12.2584 12.6249 11.8115 11.3323 11.8115C10.0397 11.8115 8.78681 12.2584 7.78598 13.0764C6.84732 13.8436 6.18449 14.8931 5.89355 16.0655C6.17472 16.1593 6.46831 16.2248 6.77085 16.2585C8.25494 16.4239 9.77874 16.566 11.3323 16.566C12.8859 16.566 14.4097 16.424 15.8938 16.2585C16.1963 16.2248 16.4899 16.1593 16.771 16.0656Z" stroke="white" stroke-width="1.5" stroke-linecap="round" stroke-linejoin="round"/>
<path d="M16.1375 0.735576C15.7256 0.691214 15.3558 0.989106 15.3114 1.40094C15.2671 1.81277 15.565 2.18259 15.9768 2.22695L16.1375 0.735576ZM20.1113 6.36094C20.1538 6.77296 20.5223 7.07248 20.9343 7.02994C21.3463 6.9874 21.6459 6.6189 21.6033 6.20688L20.1113 6.36094ZM18.736 1.78607L18.6523 2.53139L18.736 1.78607ZM15.9768 2.22695C16.8834 2.32461 17.7615 2.43142 18.6523 2.53139L18.8196 1.04074C17.9522 0.943402 17.0432 0.833146 16.1375 0.735576L15.9768 2.22695ZM21.6033 6.20688C21.5099 5.30184 21.4046 4.40186 21.3094 3.53415L19.8183 3.69772C19.9152 4.58113 20.0183 5.46096 20.1113 6.36094L21.6033 6.20688ZM18.6523 2.53139C19.2648 2.60012 19.7514 3.08759 19.8183 3.69772L21.3094 3.53415C21.1657 2.22397 20.1269 1.18745 18.8196 1.04074L18.6523 2.53139Z" fill="white"/>
<path d="M16.1375 21.2644C15.7256 21.3088 15.3558 21.0109 15.3114 20.5991C15.2671 20.1872 15.565 19.8174 15.9768 19.7731L16.1375 21.2644ZM20.1113 15.6391C20.1538 15.227 20.5223 14.9275 20.9343 14.9701C21.3463 15.0126 21.6459 15.3811 21.6033 15.7931L20.1113 15.6391ZM15.9768 19.7731C16.8834 19.6754 17.7615 19.5686 18.6523 19.4686L18.8196 20.9593C17.9522 21.0566 17.0432 21.1669 16.1375 21.2644L15.9768 19.7731ZM21.6033 15.7931C21.5099 16.6982 21.4046 17.5981 21.3094 18.4659L19.8183 18.3023C19.9152 17.4189 20.0183 16.539 20.1113 15.6391L21.6033 15.7931ZM18.6523 19.4686C19.2648 19.3999 19.7514 18.9124 19.8183 18.3023L21.3094 18.4659C21.1657 19.776 20.1269 20.8125 18.8196 20.9593L18.6523 19.4686Z" fill="white"/>
<path d="M6.52661 0.735576C6.93844 0.691214 7.30826 0.989106 7.35262 1.40094C7.39698 1.81277 7.09909 2.18259 6.68726 2.22695L6.52661 0.735576ZM2.5528 6.36094C2.51026 6.77296 2.14177 7.07248 1.72974 7.02994C1.31772 6.9874 1.0182 6.6189 1.06074 6.20688L2.5528 6.36094ZM3.92808 1.78607L4.01172 2.53139L3.92808 1.78607ZM6.68726 2.22695C5.78062 2.32461 4.90252 2.43142 4.01172 2.53139L3.84444 1.04074C4.71187 0.943402 5.62083 0.833146 6.52661 0.735576L6.68726 2.22695ZM1.06074 6.20688C1.15418 5.30184 1.25948 4.40186 1.35467 3.53415L2.84573 3.69772C2.74881 4.58113 2.64573 5.46096 2.5528 6.36094L1.06074 6.20688ZM4.01172 2.53139C3.39925 2.60012 2.91266 3.08759 2.84573 3.69772L1.35467 3.53415C1.49841 2.22397 2.53713 1.18745 3.84444 1.04074L4.01172 2.53139Z" fill="white"/>
<path d="M6.52661 21.2644C6.93844 21.3088 7.30826 21.0109 7.35262 20.5991C7.39698 20.1872 7.09909 19.8174 6.68726 19.7731L6.52661 21.2644ZM2.5528 15.6391C2.51026 15.227 2.14177 14.9275 1.72974 14.9701C1.31772 15.0126 1.0182 15.3811 1.06074 15.7931L2.5528 15.6391ZM6.68726 19.7731C5.78062 19.6754 4.90252 19.5686 4.01172 19.4686L3.84444 20.9593C4.71187 21.0566 5.62083 21.1669 6.52661 21.2644L6.68726 19.7731ZM1.06074 15.7931C1.15418 16.6982 1.25948 17.5981 1.35467 18.4659L2.84573 18.3023C2.74881 17.4189 2.64573 16.539 2.5528 15.6391L1.06074 15.7931ZM4.01172 19.4686C3.39925 19.3999 2.91266 18.9124 2.84573 18.3023L1.35467 18.4659C1.49841 19.776 2.53713 20.8125 3.84444 20.9593L4.01172 19.4686Z" fill="white"/>
</svg>
