<svg width="57" height="56" viewBox="0 0 57 56" fill="none" xmlns="http://www.w3.org/2000/svg">
<path fill-rule="evenodd" clip-rule="evenodd" d="M26.3302 12.6729L29.6369 9.4196C32.2988 6.7966 36.9736 4.9788 41.6153 4.32407C43.6732 4.00863 45.7661 3.98125 47.8318 4.24273C49.6629 4.51113 50.783 5.0398 51.3038 5.55627C51.8288 6.06867 52.3661 7.17073 52.6389 8.97227C52.9034 10.7087 52.8828 12.8356 52.5562 15.0885C51.8949 19.6554 50.0432 24.2548 47.3772 26.8737L29.0004 44.9582L24.2636 40.2978C24.0717 40.1088 23.8438 39.9587 23.593 39.8563C23.3422 39.7539 23.0734 39.7011 22.8018 39.7009C22.5303 39.7007 22.2614 39.7532 22.0104 39.8552C21.7594 39.9573 21.5314 40.107 21.3392 40.2958C20.9512 40.677 20.7329 41.1944 20.7326 41.7339C20.7324 42.0011 20.7857 42.2657 20.8894 42.5126C20.9931 42.7595 21.1453 42.9839 21.3372 43.1729L27.5372 49.2729C27.7291 49.4623 27.9572 49.6125 28.2083 49.715C28.4594 49.8175 28.7285 49.8703 29.0004 49.8703C29.2722 49.8703 29.5414 49.8175 29.7925 49.715C30.0435 49.6125 30.2716 49.4623 30.4636 49.2729L32.7245 47.0444L37.5605 54.9785C37.7218 55.2441 37.9425 55.4701 38.206 55.6391C38.4694 55.8081 38.7686 55.9157 39.0807 55.9538C39.3929 55.9918 39.7097 55.9593 40.0071 55.8586C40.3045 55.758 40.5746 55.5919 40.7969 55.3729L49.0636 47.2396C49.2906 47.0159 49.4614 46.7432 49.5626 46.4432C49.6638 46.1432 49.6925 45.8241 49.6464 45.5113L47.7244 32.2865L50.3036 29.7529C53.8376 26.2719 55.9166 20.7046 56.6482 15.6619C57.0202 13.1121 57.0616 10.5786 56.7268 8.36633C56.3961 6.21913 55.6686 4.09633 54.2302 2.67707C52.7877 1.26187 50.6301 0.542068 48.4436 0.220801C45.9818 -0.0980513 43.4864 -0.0706659 41.0325 0.302134C35.903 1.0138 30.2404 3.05933 26.7105 6.53633L24.1354 9.07393L10.6938 7.18293C10.3759 7.13759 10.0516 7.16581 9.74661 7.26534C9.44168 7.36488 9.16453 7.53299 8.93717 7.75633L0.670502 15.8897C0.447999 16.1084 0.279162 16.3741 0.176854 16.6667C0.0745458 16.9593 0.0414651 17.2711 0.0801316 17.5782C0.118798 17.8852 0.228192 18.1796 0.39998 18.4388C0.571768 18.698 0.801417 18.9152 1.07143 19.0739L9.13144 23.8319L6.8705 26.0563C6.67804 26.2452 6.52534 26.4696 6.42116 26.7166C6.31697 26.9637 6.26334 27.2285 6.26334 27.4959C6.26334 27.7634 6.31697 28.0282 6.42116 28.2752C6.52534 28.5223 6.67804 28.7467 6.8705 28.9355L13.0705 35.0355C13.2627 35.2246 13.4908 35.3745 13.7418 35.4769C13.9929 35.5792 14.262 35.6318 14.5337 35.6318C14.8054 35.6318 15.0745 35.5792 15.3256 35.4769C15.5766 35.3745 15.8048 35.2246 15.9969 35.0355C16.1891 34.8465 16.3415 34.622 16.4455 34.375C16.5495 34.128 16.603 33.8633 16.603 33.5959C16.603 33.3286 16.5495 33.0638 16.4455 32.8168C16.3415 32.5698 16.1891 32.3454 15.9969 32.1563L11.256 27.5L13.9302 24.8729L26.3302 12.6729ZM39.7429 50.6556L35.7336 44.0798L44.0705 35.8814L45.4097 45.0802L39.747 50.6515L39.7429 50.6556ZM12.1488 20.8713L20.4816 12.6729L11.132 11.3553L5.4693 16.9267L12.1488 20.8713ZM7.7261 39.1063C7.91825 38.9175 8.07073 38.6933 8.17482 38.4466C8.27892 38.1998 8.33259 37.9353 8.33278 37.6681C8.33298 37.4009 8.27968 37.1363 8.17594 36.8894C8.0722 36.6425 7.92005 36.4182 7.72817 36.2291C7.53629 36.0401 7.30844 35.89 7.05764 35.7876C6.80683 35.6852 6.53798 35.6324 6.26643 35.6322C5.99488 35.632 5.72595 35.6845 5.475 35.7865C5.22405 35.8886 4.99599 36.0383 4.80383 36.2271L0.670502 40.2937C0.282985 40.6755 0.0654982 41.1932 0.0658858 41.7327C0.0662733 42.2723 0.284504 42.7896 0.672568 43.1709C1.06063 43.5522 1.58674 43.7661 2.13516 43.7658C2.68358 43.7654 3.20938 43.5507 3.5969 43.1689L7.73024 39.1022L7.7261 39.1063ZM13.9261 45.2063C14.1235 45.0187 14.2809 44.7943 14.3892 44.5463C14.4976 44.2982 14.5546 44.0314 14.557 43.7614C14.5593 43.4914 14.507 43.2237 14.4031 42.9738C14.2992 42.7239 14.1458 42.4968 13.9517 42.3059C13.7577 42.115 13.5269 41.964 13.2729 41.8618C13.019 41.7596 12.7468 41.7081 12.4724 41.7105C12.198 41.7128 11.9268 41.7689 11.6747 41.8755C11.4225 41.982 11.1945 42.1369 11.0038 42.3311L2.73717 50.4645C2.34965 50.8463 2.13216 51.3639 2.13255 51.9035C2.13294 52.443 2.35117 52.9604 2.73923 53.3416C3.1273 53.7229 3.65341 53.9369 4.20183 53.9365C4.75025 53.9361 5.27605 53.7214 5.66357 53.3396L13.9302 45.2063H13.9261ZM20.1261 51.3063C20.3183 51.1175 20.4707 50.8933 20.5748 50.6465C20.6789 50.3998 20.7326 50.1353 20.7328 49.8681C20.733 49.6009 20.6797 49.3363 20.5759 49.0894C20.4722 48.8425 20.32 48.6182 20.1282 48.4291C19.9363 48.24 19.7084 48.09 19.4576 47.9876C19.2068 47.8852 18.938 47.8324 18.6664 47.8322C18.3949 47.832 18.126 47.8845 17.875 47.9865C17.624 48.0886 17.396 48.2383 17.2038 48.4271L13.0705 52.4937C12.683 52.8755 12.4655 53.3932 12.4659 53.9327C12.4663 54.4723 12.6845 54.9896 13.0726 55.3709C13.4606 55.7522 13.9867 55.9661 14.5352 55.9658C15.0836 55.9654 15.6094 55.7507 15.9969 55.3689L20.1302 51.3022L20.1261 51.3063ZM37.267 24.4419C38.6362 24.4419 39.9493 23.9067 40.9175 22.9542C41.8857 22.0016 42.4296 20.7097 42.4296 19.3626C42.4296 18.0155 41.8857 16.7236 40.9175 15.771C39.9493 14.8185 38.6362 14.2833 37.267 14.2833C35.8978 14.2833 34.5847 14.8185 33.6166 15.771C32.6484 16.7236 32.1045 18.0155 32.1045 19.3626C32.1045 20.7097 32.6484 22.0016 33.6166 22.9542C34.5847 23.9067 35.8978 24.4419 37.267 24.4419Z" fill="#FF6B00"/>
</svg>
