<svg width="23" height="24" viewBox="0 0 23 24" fill="none" xmlns="http://www.w3.org/2000/svg">
<path d="M21.8631 14.1814C22.0232 13.4044 22.103 12.612 22.1011 11.8174C22.0932 10.3646 21.8092 8.92757 21.2654 7.5886C20.7215 6.24964 19.9286 5.03497 18.9318 4.01402C17.935 2.99308 16.7539 2.18588 15.4562 1.6386C14.1584 1.09131 12.7693 0.814653 11.3683 0.824452C10.7554 0.822818 10.1436 0.878176 9.54025 0.989862C8.60354 0.379499 7.52696 0.0389153 6.42123 0.00314125C5.3155 -0.0326328 4.22053 0.237694 3.24896 0.786318C2.27739 1.33494 1.46427 2.14206 0.893248 3.12465C0.322225 4.10725 0.0139049 5.22985 0 6.377C0.000708484 7.50797 0.293422 8.61812 0.847732 9.5921C0.710203 10.3164 0.639139 11.0525 0.63549 11.7907C0.647234 13.2335 0.935206 14.6596 1.48269 15.986C2.03017 17.3125 2.82627 18.513 3.82476 19.5178C4.82325 20.5226 6.00425 21.3118 7.29921 21.8394C8.59417 22.3671 9.97729 22.6227 11.3683 22.5916C12.0265 22.5967 12.6834 22.5318 13.3288 22.3981C14.2195 22.9582 15.2306 23.2796 16.271 23.3333C17.3206 23.3539 18.3576 23.0938 19.2822 22.5781C20.2067 22.0623 20.9876 21.3083 21.5495 20.3887C22.1114 19.4691 22.4354 18.4149 22.4904 17.3277C22.5453 16.2405 22.3293 15.1569 21.8631 14.1814ZM16.2439 16.3253C15.7783 16.9725 15.1441 17.4682 14.4159 17.7541C13.5148 18.1261 12.55 18.3036 11.5805 18.2757C10.4544 18.3136 9.33601 18.0688 8.3207 17.562C7.72683 17.2339 7.21768 16.7627 6.83611 16.1879C6.49739 15.7075 6.30396 15.1336 6.28036 14.539C6.27769 14.3879 6.30721 14.238 6.3668 14.1001C6.4264 13.9622 6.5146 13.8397 6.62512 13.7412C6.86331 13.5167 7.17703 13.3984 7.49861 13.4116C7.75873 13.4005 8.01375 13.4888 8.21523 13.6598C8.43629 13.8736 8.60818 14.1362 8.7182 14.4282C8.8543 14.7942 9.04203 15.1373 9.27528 15.4462C9.48861 15.7365 9.7716 15.9637 10.096 16.1052C10.5401 16.2993 11.0191 16.3929 11.5008 16.38C12.1824 16.4187 12.8586 16.2364 13.4357 15.8584C13.6585 15.7233 13.8438 15.5309 13.9739 15.2998C14.1039 15.0686 14.1742 14.8066 14.1779 14.539C14.1856 14.3499 14.154 14.1614 14.0855 13.986C14.0169 13.8107 13.9129 13.6526 13.7804 13.5224C13.4886 13.2358 13.1334 13.0278 12.7461 12.9166C12.3229 12.7793 11.7388 12.6419 11.0235 12.4778C10.2022 12.2976 9.39597 12.0496 8.61273 11.736C8.01071 11.4859 7.48118 11.0787 7.07541 10.5541C6.69159 10.0248 6.49493 9.37476 6.5184 8.71297C6.51764 8.03731 6.732 7.38029 7.1282 6.84392C7.57713 6.26371 8.17387 5.82559 8.85072 5.57925C9.70989 5.26518 10.6171 5.11643 11.5278 5.14031C12.245 5.13079 12.9596 5.23241 13.6479 5.44182C14.1834 5.60268 14.686 5.86354 15.1311 6.21157C15.4859 6.48577 15.7835 6.83156 16.006 7.22813C16.176 7.53822 16.2672 7.88806 16.271 8.24476C16.2714 8.3994 16.241 8.55245 16.1816 8.69433C16.1223 8.8362 16.0353 8.96383 15.9262 9.0692C15.8173 9.1876 15.6854 9.28069 15.5393 9.34233C15.3932 9.40396 15.2361 9.43273 15.0784 9.42674C14.8225 9.44244 14.5694 9.36455 14.3632 9.20664C14.1503 9.00021 13.9712 8.75913 13.8332 8.49292C13.6223 8.05684 13.324 7.67248 12.9584 7.36556C12.4682 7.04751 11.8918 6.90287 11.3156 6.95334C10.7206 6.92458 10.1306 7.07767 9.61874 7.39361C9.43494 7.49612 9.27983 7.64619 9.16848 7.82923C9.05713 8.01227 8.99332 8.22206 8.98325 8.43824C8.98467 8.67572 9.05901 8.90656 9.19549 9.09726C9.35965 9.30143 9.56882 9.46158 9.8053 9.56416C10.0468 9.70081 10.3052 9.8027 10.5732 9.86702C10.8383 9.94976 11.2629 10.0591 11.8713 10.1966C12.6135 10.362 13.3031 10.5541 13.9129 10.7461C14.465 10.9158 14.9913 11.1655 15.476 11.4879C15.8887 11.7692 16.2334 12.1454 16.4832 12.5872C16.7386 13.0862 16.8661 13.6447 16.8537 14.2095C16.8852 14.9657 16.6704 15.711 16.2439 16.3253Z" fill="#135EF2"/>
</svg>
