<svg width="63" height="61" viewBox="0 0 63 61" fill="none" xmlns="http://www.w3.org/2000/svg">
<path fill-rule="evenodd" clip-rule="evenodd" d="M31.5011 4.47625e-07C31.8944 -0.000257778 32.28 0.111212 32.6142 0.321795C32.9484 0.532377 33.2178 0.833661 33.3919 1.19155L41.9835 18.8567L61.1981 21.6902C61.5869 21.7479 61.952 21.9148 62.2523 22.172C62.5525 22.4292 62.7759 22.7665 62.8971 23.1457C63.0184 23.5249 63.0328 23.931 62.9386 24.318C62.8444 24.7051 62.6454 25.0577 62.3641 25.3361L48.4624 39.0845L51.744 58.4998C51.8106 58.893 51.7674 59.2973 51.6194 59.6669C51.4714 60.0365 51.2244 60.3567 50.9063 60.5913C50.5883 60.8259 50.2119 60.9655 49.8197 60.9944C49.4276 61.0233 49.0352 60.9402 48.6872 60.7547L31.5011 51.5872L14.315 60.7547C13.9671 60.94 13.5751 61.0229 13.1833 60.9941C12.7914 60.9654 12.4153 60.826 12.0974 60.5918C11.7794 60.3576 11.5324 60.0378 11.3841 59.6687C11.2358 59.2995 11.1922 58.8957 11.2582 58.5027L14.5398 39.0845L0.638051 25.3361C0.355877 25.0576 0.156209 24.7046 0.0616747 24.3169C-0.0328598 23.9292 -0.0184816 23.5224 0.10318 23.1426C0.224841 22.7628 0.448921 22.4252 0.750029 22.1679C1.05114 21.9107 1.41723 21.7442 1.80683 21.6873L21.0186 18.8567L29.613 1.19155C29.787 0.834096 30.0559 0.533099 30.3896 0.322547C30.7232 0.111995 31.1082 0.000274057 31.5011 4.47625e-07ZM31.5011 6.9697L24.3086 21.7557C24.1572 22.0665 23.9336 22.3353 23.6571 22.5389C23.3805 22.7425 23.0594 22.8748 22.7212 22.9245L6.63646 25.2962L18.2765 36.8068C18.5208 37.049 18.7035 37.3479 18.8087 37.6776C18.914 38.0073 18.9386 38.3581 18.8805 38.6996L16.1328 54.9537L30.5205 47.2799C30.8229 47.1186 31.1594 47.0343 31.5011 47.0343C31.8427 47.0343 32.1792 47.1186 32.4816 47.2799L46.8666 54.9537L44.1216 38.6996C44.0635 38.3581 44.0882 38.0073 44.1934 37.6776C44.2986 37.3479 44.4813 37.049 44.7257 36.8068L56.3657 25.2962L40.2809 22.9273C39.9428 22.8777 39.6216 22.7454 39.3451 22.5417C39.0685 22.3381 38.8449 22.0694 38.6935 21.7586L31.5011 6.96685V6.9697Z" fill="#FF6B00"/>
</svg>
