<svg width="25" height="24" viewBox="0 0 25 24" fill="none" xmlns="http://www.w3.org/2000/svg">
<path d="M12.6655 0.000549357C10.358 0.000549357 8.10237 0.684787 6.1838 1.96674C4.26523 3.24869 2.76988 5.07077 1.88686 7.20258C1.00383 9.33438 0.772795 11.6802 1.22296 13.9433C1.67312 16.2064 2.78426 18.2852 4.41587 19.9168C6.04749 21.5484 8.12629 22.6595 10.3894 23.1097C12.6525 23.5599 14.9983 23.3288 17.1301 22.4458C19.2619 21.5628 21.084 20.0674 22.3659 18.1489C23.6479 16.2303 24.3321 13.9747 24.3321 11.6672C24.3322 10.1351 24.0306 8.61795 23.4443 7.20243C22.858 5.7869 21.9987 4.50073 20.9153 3.41735C19.8319 2.33398 18.5458 1.47462 17.1302 0.888363C15.7147 0.302103 14.1976 0.000422174 12.6655 0.000549357ZM16.3749 17.6784C16.3312 17.7873 16.2648 17.8856 16.18 17.9667C16.0952 18.0478 15.9941 18.1099 15.8834 18.1487C15.7727 18.1875 15.655 18.2023 15.5381 18.1919C15.4213 18.1815 15.308 18.1463 15.2059 18.0885L12.0388 15.6276L10.0061 17.5029C9.95889 17.5377 9.90372 17.5602 9.84562 17.5681C9.78751 17.576 9.72834 17.5692 9.67356 17.5483L10.0632 14.0618L10.0757 14.0717L10.0837 14.0028C10.0837 14.0028 15.7828 8.81407 16.015 8.593C16.25 8.3725 16.1725 8.32467 16.1725 8.32467C16.1859 8.05572 15.7507 8.32467 15.7507 8.32467L8.19945 13.1827L5.05471 12.1117C5.05471 12.1117 4.57171 11.9385 4.52621 11.5575C4.47838 11.1795 5.07045 10.9742 5.07045 10.9742L17.5736 6.00712C17.5736 6.00712 18.6015 5.54918 18.6015 6.30755L16.3749 17.6784Z" fill="#135EF2"/>
</svg>
