<svg width="24" height="24" viewBox="0 0 24 24" fill="none" xmlns="http://www.w3.org/2000/svg">
<path d="M11.7499 4.01962e-08C9.44248 4.01962e-08 7.18684 0.684238 5.26827 1.96619C3.3497 3.24814 1.85435 5.07022 0.971329 7.20203C0.0883069 9.33383 -0.142732 11.6796 0.307429 13.9427C0.75759 16.2058 1.86873 18.2846 3.50034 19.9162C5.13196 21.5479 7.21076 22.659 9.47387 23.1092C11.737 23.5593 14.0828 23.3283 16.2146 22.4453C18.3464 21.5622 20.1685 20.0669 21.4504 18.1483C22.7324 16.2297 23.4166 13.9741 23.4166 11.6667C23.4167 10.1345 23.115 8.6174 22.5288 7.20188C21.9425 5.78635 21.0832 4.50018 19.9998 3.4168C18.9164 2.33343 17.6302 1.47407 16.2147 0.887813C14.7992 0.301553 13.282 -0.000127142 11.7499 4.01962e-08ZM15.4594 17.6779C15.4157 17.7868 15.3492 17.8851 15.2645 17.9662C15.1797 18.0473 15.0786 18.1093 14.9679 18.1482C14.8572 18.187 14.7395 18.2017 14.6226 18.1913C14.5058 18.1809 14.3925 18.1457 14.2904 18.088L11.1232 15.627L9.09053 17.5023C9.04337 17.5372 8.98819 17.5596 8.93009 17.5675C8.87198 17.5755 8.81282 17.5687 8.75803 17.5478L9.1477 14.0612L9.16017 14.0711L9.16814 14.0023C9.16814 14.0023 14.8673 8.81352 15.0995 8.59245C15.3345 8.37195 15.257 8.32412 15.257 8.32412C15.2704 8.05517 14.8352 8.32412 14.8352 8.32412L7.28392 13.1822L4.13919 12.1112C4.13919 12.1112 3.65619 11.9379 3.61069 11.557C3.56285 11.179 4.15492 10.9737 4.15492 10.9737L16.6581 6.00657C16.6581 6.00657 17.6859 5.54863 17.6859 6.307L15.4594 17.6779Z" fill="#DDECFF"/>
</svg>
