<svg width="57" height="58" viewBox="0 0 57 58" fill="none" xmlns="http://www.w3.org/2000/svg">
<path d="M28.4951 4.38662C23.8014 4.38601 19.2053 5.72706 15.2485 8.25174C11.2916 10.7764 8.13886 14.3795 6.16171 18.6365H12.3073C12.8226 18.6365 13.3169 18.8412 13.6813 19.2056C14.0457 19.57 14.2504 20.0643 14.2504 20.5796C14.2504 21.095 14.0457 21.5892 13.6813 21.9537C13.3169 22.3181 12.8226 22.5228 12.3073 22.5228H2.59147C1.90433 22.5228 1.24533 22.2498 0.759443 21.7639C0.273559 21.2781 0.000591773 20.6191 0.000591773 19.9319V10.2161C0.000591781 9.70075 0.205317 9.2065 0.569731 8.84208C0.934144 8.47767 1.42839 8.27295 1.94375 8.27295C2.45911 8.27295 2.95336 8.47767 3.31778 8.84208C3.68219 9.2065 3.88691 9.70075 3.88691 10.2161V14.6128C6.39876 10.3161 9.99232 6.7523 14.3098 4.27627C18.6273 1.80025 23.518 0.498382 28.4951 0.5003C44.2373 0.5003 57 13.2604 57 29C57 44.7396 44.2373 57.4997 28.4951 57.4997C12.9913 57.4997 0.378861 45.1231 0.000591773 29.7125C-0.0121204 29.1971 0.180413 28.6978 0.535838 28.3244C0.891263 27.951 1.38046 27.7341 1.89582 27.7214C2.41118 27.7087 2.91048 27.9012 3.28388 28.2567C3.65729 28.6121 3.8742 29.1013 3.88691 29.6166C4.04779 36.0362 6.71112 42.1386 11.3086 46.6218C15.9061 51.1051 22.0736 53.614 28.4951 53.6134C42.0921 53.6134 53.1137 42.5944 53.1137 29C53.1137 15.4056 42.0921 4.38662 28.4951 4.38662Z" fill="#FF6B00"/>
<path d="M29.7955 16.6933C29.7955 16.178 29.5908 15.6837 29.2264 15.3193C28.8619 14.9549 28.3677 14.7502 27.8523 14.7502C27.337 14.7502 26.8427 14.9549 26.4783 15.3193C26.1139 15.6837 25.9092 16.178 25.9092 16.6933V30.9432C25.9092 31.6427 26.2823 32.2852 26.8885 32.6298L35.9566 37.8116C36.403 38.0528 36.926 38.1099 37.4139 37.9706C37.9018 37.8313 38.3159 37.5067 38.5676 37.0662C38.8194 36.6257 38.8888 36.1041 38.7611 35.6131C38.6334 35.122 38.3187 34.7004 37.8842 34.4383L29.7955 29.8161V16.6933Z" fill="#FF6B00"/>
</svg>
