<svg width="24" height="24" viewBox="0 0 24 24" fill="none" xmlns="http://www.w3.org/2000/svg">
<path d="M23.0833 5.30833C23.0706 4.805 23.0331 4.30267 22.9708 3.80333C22.8867 3.36598 22.7468 2.94223 22.5545 2.54333C22.3534 2.11062 22.0834 1.7162 21.7558 1.37667C21.4251 1.04091 21.0454 0.761356 20.6308 0.548333C20.2456 0.352852 19.837 0.211602 19.4158 0.128333C18.9388 0.0542493 18.4579 0.0113868 17.9757 0H5.702C5.21665 0.0131091 4.73226 0.0520492 4.25075 0.116667C3.82902 0.20378 3.4204 0.348954 3.03575 0.548333C2.61849 0.75686 2.23816 1.0369 1.91075 1.37667C1.58698 1.71956 1.31742 2.11329 1.112 2.54333C0.923502 2.94276 0.787297 3.36651 0.707002 3.80333C0.635564 4.29792 0.594232 4.79669 0.583252 5.29667C0.583252 5.51833 0.583252 5.83333 0.583252 5.92667V17.4067C0.583252 17.535 0.583252 17.815 0.583252 18.025C0.595893 18.5283 0.633442 19.0307 0.695752 19.53C0.779754 19.9674 0.919743 20.3911 1.112 20.79C1.31308 21.2227 1.58312 21.6171 1.91075 21.9567C2.2414 22.2924 2.62107 22.572 3.03575 22.785C3.42091 22.9805 3.82952 23.1217 4.25075 23.205C4.72768 23.2791 5.20863 23.3219 5.69075 23.3333H17.9645C18.4499 23.3202 18.9342 23.2813 19.4158 23.2167C19.8375 23.1296 20.2461 22.9844 20.6308 22.785C21.048 22.5765 21.4283 22.2964 21.7558 21.9567C22.0795 21.6138 22.3491 21.22 22.5545 20.79C22.743 20.3906 22.8792 19.9668 22.9595 19.53C23.0309 19.0354 23.0723 18.5366 23.0833 18.0367C23.0833 17.815 23.0833 17.535 23.0833 17.4067V5.92667C23.0833 5.83333 23.0833 5.51833 23.0833 5.30833ZM12.092 19.8333C10.7409 19.8264 9.41353 19.4652 8.23325 18.7833L3.95825 19.95L5.08325 15.61C4.35775 14.3459 3.96949 12.9044 3.95825 11.4333C3.96273 9.78008 4.43886 8.16517 5.32666 6.79199C6.21446 5.41882 7.47424 4.34879 8.94732 3.71667C10.4204 3.08455 12.0409 2.91862 13.6048 3.23976C15.1686 3.56091 16.6059 4.35477 17.7355 5.52137C18.8651 6.68797 19.6366 8.17513 19.9528 9.79555C20.2689 11.416 20.1157 13.0972 19.5123 14.6274C18.9089 16.1577 17.8823 17.4686 16.5619 18.395C15.2414 19.3213 13.6862 19.8218 12.092 19.8333ZM12.092 4.515C10.8993 4.52915 9.73149 4.87081 8.7075 5.50519C7.68352 6.13957 6.83991 7.04402 6.26259 8.12644C5.68526 9.20886 5.39482 10.4306 5.42085 11.6673C5.44687 12.904 5.78843 14.1114 6.41075 15.1667L6.56825 15.435L5.89325 17.99L8.45825 17.2667L8.70575 17.4183C9.72902 18.0434 10.8932 18.3774 12.0808 18.3867C13.871 18.3867 15.5879 17.6492 16.8537 16.3364C18.1196 15.0237 18.8308 13.2432 18.8308 11.3867C18.8308 9.53015 18.1196 7.74967 16.8537 6.43692C15.5879 5.12417 13.871 4.38667 12.0808 4.38667L12.092 4.515ZM16.0295 14.455C15.8822 14.7099 15.6849 14.9298 15.4504 15.1007C15.2159 15.2715 14.9494 15.3894 14.6683 15.4467C14.2481 15.5263 13.8156 15.4983 13.4083 15.365C13.025 15.2408 12.6493 15.0927 12.2833 14.9217C10.8925 14.1979 9.70637 13.1126 8.84075 11.7717C8.37037 11.1504 8.08496 10.4003 8.0195 9.61333C8.0128 9.28642 8.07244 8.9617 8.19453 8.66022C8.31663 8.35874 8.49847 8.08725 8.72825 7.86333C8.79594 7.78375 8.87897 7.71979 8.97199 7.67558C9.06501 7.63136 9.16594 7.60789 9.26825 7.60667H9.58325C9.707 7.60667 9.87575 7.60667 10.0333 7.96833C10.1908 8.33 10.607 9.415 10.6633 9.52C10.6909 9.57597 10.7053 9.63795 10.7053 9.70083C10.7053 9.76372 10.6909 9.8257 10.6633 9.88167C10.6135 10.0084 10.5452 10.1265 10.4608 10.2317C10.3595 10.36 10.247 10.5117 10.157 10.605C10.067 10.6983 9.9545 10.815 10.067 11.025C10.3731 11.5607 10.752 12.0479 11.192 12.4717C11.6712 12.9108 12.219 13.2619 12.812 13.51C13.0145 13.615 13.1383 13.6033 13.2508 13.51C13.3633 13.4167 13.757 12.9033 13.892 12.6933C14.027 12.4833 14.162 12.5183 14.342 12.5883C14.522 12.6583 15.5233 13.16 15.7258 13.265C15.9283 13.37 16.052 13.4167 16.1083 13.51C16.157 13.8153 16.1299 14.1285 16.0295 14.42V14.455Z" fill="#DDECFF"/>
</svg>
