<svg width="23" height="24" viewBox="0 0 23 24" fill="none" xmlns="http://www.w3.org/2000/svg">
<path d="M22.9988 5.30888C22.9861 4.80555 22.9486 4.30322 22.8863 3.80388C22.8023 3.36653 22.6623 2.94278 22.47 2.54388C22.269 2.11117 21.9989 1.71675 21.6713 1.37722C21.3406 1.04145 20.961 0.761905 20.5463 0.548883C20.1611 0.353401 19.7525 0.212152 19.3313 0.128883C18.8544 0.0547986 18.3734 0.0119361 17.8913 0.000549316H5.61753C5.13217 0.0136585 4.64779 0.0525985 4.16628 0.117216C3.74454 0.204329 3.33593 0.349503 2.95128 0.548883C2.53402 0.757409 2.15368 1.03745 1.82628 1.37722C1.50251 1.72011 1.23294 2.11384 1.02753 2.54388C0.839029 2.94331 0.702824 3.36705 0.622529 3.80388C0.551091 4.29847 0.509759 4.79724 0.498779 5.29722C0.498779 5.51888 0.498779 5.83388 0.498779 5.92722V17.4072C0.498779 17.5356 0.498779 17.8156 0.498779 18.0256C0.51142 18.5289 0.54897 19.0312 0.611279 19.5306C0.695281 19.9679 0.835271 20.3917 1.02753 20.7906C1.22861 21.2233 1.49865 21.6177 1.82628 21.9572C2.15693 22.293 2.5366 22.5725 2.95128 22.7856C3.33644 22.981 3.74505 23.1223 4.16628 23.2055C4.64321 23.2796 5.12416 23.3225 5.60628 23.3339H17.88C18.3654 23.3208 18.8498 23.2818 19.3313 23.2172C19.753 23.1301 20.1616 22.9849 20.5463 22.7856C20.9635 22.577 21.3439 22.297 21.6713 21.9572C21.995 21.6143 22.2646 21.2206 22.47 20.7906C22.6585 20.3911 22.7947 19.9674 22.875 19.5306C22.9465 19.036 22.9878 18.5372 22.9988 18.0372C22.9988 17.8155 22.9988 17.5356 22.9988 17.4072V5.92722C22.9988 5.83388 22.9988 5.51888 22.9988 5.30888ZM12.0075 19.8339C10.6565 19.827 9.32905 19.4658 8.14878 18.7839L3.87378 19.9506L4.99878 15.6106C4.27328 14.3464 3.88501 12.9049 3.87378 11.4339C3.87826 9.78063 4.35438 8.16572 5.24218 6.79254C6.12999 5.41937 7.38976 4.34934 8.86285 3.71722C10.3359 3.0851 11.9565 2.91917 13.5203 3.24031C15.0842 3.56146 16.5214 4.35532 17.651 5.52192C18.7806 6.68852 19.5521 8.17568 19.8683 9.7961C20.1845 11.4165 20.0312 13.0977 19.4278 14.628C18.8244 16.1583 17.7978 17.4691 16.4774 18.3955C15.1569 19.3219 13.6017 19.8224 12.0075 19.8339ZM12.0075 4.51555C10.8148 4.5297 9.64702 4.87136 8.62303 5.50574C7.59904 6.14012 6.75544 7.04457 6.17811 8.12699C5.60078 9.20941 5.31035 10.4312 5.33637 11.6678C5.3624 12.9045 5.70396 14.1119 6.32628 15.1672L6.48378 15.4355L5.80878 17.9906L8.37378 17.2672L8.62128 17.4189C9.64455 18.0439 10.8087 18.378 11.9963 18.3872C13.7865 18.3872 15.5034 17.6497 16.7693 16.337C18.0351 15.0242 18.7463 13.2437 18.7463 11.3872C18.7463 9.5307 18.0351 7.75022 16.7693 6.43747C15.5034 5.12471 13.7865 4.38722 11.9963 4.38722L12.0075 4.51555ZM15.945 14.4556C15.7977 14.7104 15.6004 14.9304 15.3659 15.1012C15.1314 15.272 14.865 15.3899 14.5838 15.4472C14.1636 15.5269 13.7311 15.4988 13.3238 15.3656C12.9405 15.2413 12.5649 15.0933 12.1988 14.9222C10.808 14.1985 9.6219 13.1132 8.75628 11.7722C8.2859 11.1509 8.00049 10.4009 7.93503 9.61388C7.92833 9.28697 7.98796 8.96225 8.11006 8.66077C8.23216 8.35929 8.414 8.0878 8.64378 7.86388C8.71146 7.7843 8.7945 7.72034 8.88752 7.67613C8.98053 7.63191 9.08146 7.60844 9.18378 7.60722H9.49878C9.62253 7.60722 9.79128 7.60722 9.94878 7.96888C10.1063 8.33055 10.5225 9.41555 10.5788 9.52055C10.6064 9.57652 10.6208 9.6385 10.6208 9.70138C10.6208 9.76427 10.6064 9.82625 10.5788 9.88222C10.529 10.009 10.4607 10.1271 10.3763 10.2322C10.275 10.3606 10.1625 10.5122 10.0725 10.6055C9.98253 10.6989 9.87003 10.8155 9.98253 11.0255C10.2886 11.5613 10.6675 12.0485 11.1075 12.4722C11.5867 12.9113 12.1345 13.2624 12.7275 13.5106C12.93 13.6156 13.0538 13.6039 13.1663 13.5106C13.2788 13.4172 13.6725 12.9039 13.8075 12.6939C13.9425 12.4839 14.0775 12.5189 14.2575 12.5889C14.4375 12.6589 15.4388 13.1606 15.6413 13.2655C15.8438 13.3706 15.9675 13.4172 16.0238 13.5106C16.0726 13.8159 16.0455 14.1291 15.945 14.4206V14.4556Z" fill="#135EF2"/>
</svg>
